<svg width="22" height="18" viewBox="0 0 22 18" fill="none" xmlns="http://www.w3.org/2000/svg">
<path d="M16.8877 7.8977C18.2827 7.7017 19.3567 6.5057 19.3597 5.0567C19.3597 3.6287 18.3187 2.4447 16.9537 2.2207" stroke="#2463EB" stroke-width="1.5" stroke-linecap="round" stroke-linejoin="round"/>
<path d="M18.7285 11.25C20.0795 11.452 21.0225 11.925 21.0225 12.9C21.0225 13.571 20.5785 14.007 19.8605 14.281" stroke="#2463EB" stroke-width="1.5" stroke-linecap="round" stroke-linejoin="round"/>
<path fill-rule="evenodd" clip-rule="evenodd" d="M10.8867 11.6641C7.67273 11.6641 4.92773 12.1511 4.92773 14.0961C4.92773 16.0401 7.65573 16.5411 10.8867 16.5411C14.1007 16.5411 16.8447 16.0591 16.8447 14.1131C16.8447 12.1671 14.1177 11.6641 10.8867 11.6641Z" stroke="#2463EB" stroke-width="1.5" stroke-linecap="round" stroke-linejoin="round"/>
<path fill-rule="evenodd" clip-rule="evenodd" d="M10.8869 8.888C12.9959 8.888 14.7059 7.179 14.7059 5.069C14.7059 2.96 12.9959 1.25 10.8869 1.25C8.7779 1.25 7.0679 2.96 7.0679 5.069C7.0599 7.171 8.7569 8.881 10.8589 8.888H10.8869Z" stroke="#2463EB" stroke-width="1.5" stroke-linecap="round" stroke-linejoin="round"/>
<path d="M4.88509 7.8977C3.48909 7.7017 2.41609 6.5057 2.41309 5.0567C2.41309 3.6287 3.45409 2.4447 4.81909 2.2207" stroke="#2463EB" stroke-width="1.5" stroke-linecap="round" stroke-linejoin="round"/>
<path d="M3.044 11.25C1.693 11.452 0.75 11.925 0.75 12.9C0.75 13.571 1.194 14.007 1.912 14.281" stroke="#2463EB" stroke-width="1.5" stroke-linecap="round" stroke-linejoin="round"/>
</svg>
