<svg width="17" height="18" viewBox="0 0 17 18" fill="none" xmlns="http://www.w3.org/2000/svg">
<path d="M4.83333 12.3327C5.16485 12.3327 5.4828 12.201 5.71722 11.9666C5.95164 11.7321 6.08333 11.4142 6.08333 11.0827C6.0874 11.0411 6.0874 10.9992 6.08333 10.9577L8.40833 8.63268H8.6H8.79167L10.1333 9.97435C10.1333 9.97435 10.1333 10.016 10.1333 10.041C10.1333 10.3725 10.265 10.6905 10.4994 10.9249C10.7339 11.1593 11.0518 11.291 11.3833 11.291C11.7149 11.291 12.0328 11.1593 12.2672 10.9249C12.5016 10.6905 12.6333 10.3725 12.6333 10.041V9.97435L15.6667 6.91602C15.9139 6.91602 16.1556 6.8427 16.3611 6.70535C16.5667 6.568 16.7269 6.37278 16.8215 6.14437C16.9161 5.91596 16.9409 5.66463 16.8926 5.42215C16.8444 5.17968 16.7254 4.95695 16.5505 4.78213C16.3757 4.60732 16.153 4.48827 15.9105 4.44003C15.6681 4.3918 15.4167 4.41656 15.1883 4.51117C14.9599 4.60578 14.7647 4.76599 14.6273 4.97155C14.49 5.17711 14.4167 5.41879 14.4167 5.66602C14.4126 5.70758 14.4126 5.74945 14.4167 5.79102L11.4083 8.79935H11.275L9.83333 7.33268C9.83333 7.00116 9.70164 6.68322 9.46722 6.4488C9.2328 6.21438 8.91485 6.08268 8.58333 6.08268C8.25181 6.08268 7.93387 6.21438 7.69945 6.4488C7.46503 6.68322 7.33333 7.00116 7.33333 7.33268L4.83333 9.83268C4.50181 9.83268 4.18387 9.96438 3.94945 10.1988C3.71503 10.4332 3.58333 10.7512 3.58333 11.0827C3.58333 11.4142 3.71503 11.7321 3.94945 11.9666C4.18387 12.201 4.50181 12.3327 4.83333 12.3327ZM16.0833 15.666H1.91667V1.49935C1.91667 1.27834 1.82887 1.06637 1.67259 0.910093C1.51631 0.753813 1.30435 0.666016 1.08333 0.666016C0.86232 0.666016 0.650358 0.753813 0.494078 0.910093C0.337797 1.06637 0.25 1.27834 0.25 1.49935V16.4993C0.25 16.7204 0.337797 16.9323 0.494078 17.0886C0.650358 17.2449 0.86232 17.3327 1.08333 17.3327H16.0833C16.3043 17.3327 16.5163 17.2449 16.6726 17.0886C16.8289 16.9323 16.9167 16.7204 16.9167 16.4993C16.9167 16.2783 16.8289 16.0664 16.6726 15.9101C16.5163 15.7538 16.3043 15.666 16.0833 15.666Z" fill="white"/>
</svg>
