<svg width="14" height="18" viewBox="0 0 14 18" fill="none" xmlns="http://www.w3.org/2000/svg">
<path d="M4.50016 7.33268H5.3335C5.55451 7.33268 5.76647 7.24488 5.92275 7.0886C6.07903 6.93232 6.16683 6.72036 6.16683 6.49935C6.16683 6.27834 6.07903 6.06637 5.92275 5.91009C5.76647 5.75381 5.55451 5.66602 5.3335 5.66602H4.50016C4.27915 5.66602 4.06719 5.75381 3.91091 5.91009C3.75463 6.06637 3.66683 6.27834 3.66683 6.49935C3.66683 6.72036 3.75463 6.93232 3.91091 7.0886C4.06719 7.24488 4.27915 7.33268 4.50016 7.33268ZM4.50016 8.99935C4.27915 8.99935 4.06719 9.08715 3.91091 9.24343C3.75463 9.39971 3.66683 9.61167 3.66683 9.83268C3.66683 10.0537 3.75463 10.2657 3.91091 10.4219C4.06719 10.5782 4.27915 10.666 4.50016 10.666H9.50016C9.72118 10.666 9.93314 10.5782 10.0894 10.4219C10.2457 10.2657 10.3335 10.0537 10.3335 9.83268C10.3335 9.61167 10.2457 9.39971 10.0894 9.24343C9.93314 9.08715 9.72118 8.99935 9.50016 8.99935H4.50016ZM13.6668 6.44935C13.6581 6.37279 13.6414 6.29737 13.6168 6.22435V6.14935C13.5768 6.06367 13.5233 5.9849 13.4585 5.91602L8.4585 0.916016C8.38961 0.851196 8.31085 0.79775 8.22516 0.757682C8.20029 0.754149 8.17504 0.754149 8.15016 0.757682C8.06551 0.709133 7.97202 0.677969 7.87516 0.666016H2.8335C2.17045 0.666016 1.53457 0.929408 1.06573 1.39825C0.596888 1.86709 0.333496 2.50297 0.333496 3.16602V14.8327C0.333496 15.4957 0.596888 16.1316 1.06573 16.6004C1.53457 17.0693 2.17045 17.3327 2.8335 17.3327H11.1668C11.8299 17.3327 12.4658 17.0693 12.9346 16.6004C13.4034 16.1316 13.6668 15.4957 13.6668 14.8327V6.49935C13.6668 6.49935 13.6668 6.49935 13.6668 6.44935ZM8.66683 3.50768L10.8252 5.66602H9.50016C9.27915 5.66602 9.06719 5.57822 8.91091 5.42194C8.75463 5.26566 8.66683 5.0537 8.66683 4.83268V3.50768ZM12.0002 14.8327C12.0002 15.0537 11.9124 15.2657 11.7561 15.4219C11.5998 15.5782 11.3878 15.666 11.1668 15.666H2.8335C2.61248 15.666 2.40052 15.5782 2.24424 15.4219C2.08796 15.2657 2.00016 15.0537 2.00016 14.8327V3.16602C2.00016 2.945 2.08796 2.73304 2.24424 2.57676C2.40052 2.42048 2.61248 2.33268 2.8335 2.33268H7.00016V4.83268C7.00016 5.49572 7.26355 6.13161 7.7324 6.60045C8.20124 7.06929 8.83712 7.33268 9.50016 7.33268H12.0002V14.8327ZM9.50016 12.3327H4.50016C4.27915 12.3327 4.06719 12.4205 3.91091 12.5768C3.75463 12.733 3.66683 12.945 3.66683 13.166C3.66683 13.387 3.75463 13.599 3.91091 13.7553C4.06719 13.9116 4.27915 13.9993 4.50016 13.9993H9.50016C9.72118 13.9993 9.93314 13.9116 10.0894 13.7553C10.2457 13.599 10.3335 13.387 10.3335 13.166C10.3335 12.945 10.2457 12.733 10.0894 12.5768C9.93314 12.4205 9.72118 12.3327 9.50016 12.3327Z" fill="white"/>
</svg>
