<svg width="21" height="16" viewBox="0 0 21 16" fill="none" xmlns="http://www.w3.org/2000/svg">
<path d="M20.5866 7.6C18.5666 2.91 14.7666 0 10.6666 0C6.56657 0 2.76657 2.91 0.746571 7.6C0.691507 7.72617 0.663086 7.86234 0.663086 8C0.663086 8.13766 0.691507 8.27383 0.746571 8.4C2.76657 13.09 6.56657 16 10.6666 16C14.7666 16 18.5666 13.09 20.5866 8.4C20.6416 8.27383 20.6701 8.13766 20.6701 8C20.6701 7.86234 20.6416 7.72617 20.5866 7.6ZM10.6666 14C7.49657 14 4.49657 11.71 2.76657 8C4.49657 4.29 7.49657 2 10.6666 2C13.8366 2 16.8366 4.29 18.5666 8C16.8366 11.71 13.8366 14 10.6666 14ZM10.6666 4C9.87545 4 9.10209 4.2346 8.44429 4.67412C7.78649 5.11365 7.2738 5.73836 6.97105 6.46927C6.6683 7.20017 6.58909 8.00444 6.74343 8.78036C6.89777 9.55628 7.27873 10.269 7.83814 10.8284C8.39755 11.3878 9.11029 11.7688 9.88621 11.9231C10.6621 12.0775 11.4664 11.9983 12.1973 11.6955C12.9282 11.3928 13.5529 10.8801 13.9924 10.2223C14.432 9.56448 14.6666 8.79113 14.6666 8C14.6666 6.93913 14.2451 5.92172 13.495 5.17157C12.7449 4.42143 11.7274 4 10.6666 4ZM10.6666 10C10.271 10 9.88433 9.8827 9.55543 9.66294C9.22653 9.44318 8.97019 9.13082 8.81881 8.76537C8.66744 8.39991 8.62783 7.99778 8.705 7.60982C8.78217 7.22186 8.97265 6.86549 9.25236 6.58579C9.53206 6.30608 9.88843 6.1156 10.2764 6.03843C10.6644 5.96126 11.0665 6.00087 11.4319 6.15224C11.7974 6.30362 12.1097 6.55996 12.3295 6.88886C12.5493 7.21776 12.6666 7.60444 12.6666 8C12.6666 8.53043 12.4559 9.03914 12.0808 9.41421C11.7057 9.78929 11.197 10 10.6666 10Z" fill="#0F5686"/>
</svg>
