<svg width="12" height="12" viewBox="0 0 12 12" fill="none" xmlns="http://www.w3.org/2000/svg">
<path d="M11.6397 6.16887C11.7469 6.02206 11.8231 5.8549 11.8634 5.67762C11.9037 5.50035 11.9074 5.31671 11.8742 5.13796C11.8439 4.95797 11.7776 4.78596 11.6791 4.63225C11.5807 4.47853 11.4523 4.34627 11.3015 4.24341L10.5051 3.70341C10.4721 3.6806 10.4446 3.65059 10.4247 3.61564C10.4049 3.58069 10.3932 3.5417 10.3906 3.50159L10.3197 2.54705C10.3069 2.36509 10.2572 2.18763 10.1738 2.02542C10.0903 1.86321 9.97482 1.71964 9.83424 1.60341C9.69477 1.48569 9.53316 1.39706 9.35893 1.34273C9.18469 1.2884 9.00135 1.26947 8.81969 1.28705L7.8706 1.38523C7.82949 1.39061 7.78769 1.38597 7.74876 1.37173C7.70982 1.35749 7.6749 1.33405 7.64697 1.30341L6.97606 0.616138C6.8486 0.486576 6.69662 0.383679 6.529 0.313441C6.36137 0.243204 6.18144 0.207031 5.99969 0.207031C5.81795 0.207031 5.63801 0.243204 5.47039 0.313441C5.30276 0.383679 5.15079 0.486576 5.02333 0.616138L4.35242 1.30341C4.32449 1.33405 4.28957 1.35749 4.25063 1.37173C4.21169 1.38597 4.16989 1.39061 4.12878 1.38523L3.17969 1.28705C2.9982 1.26984 2.81509 1.28891 2.64104 1.34315C2.46698 1.39738 2.30545 1.4857 2.16586 1.60296C2.02626 1.72022 1.91139 1.86408 1.82793 2.02616C1.74446 2.18824 1.69407 2.36531 1.67969 2.54705L1.60878 3.50159C1.60567 3.54295 1.59327 3.58306 1.57249 3.61895C1.55171 3.65484 1.5231 3.68558 1.48878 3.70887L0.697875 4.24887C0.54806 4.35146 0.420235 4.48293 0.321893 4.63557C0.223551 4.78821 0.156671 4.95895 0.125173 5.13777C0.0936759 5.3166 0.0981951 5.49991 0.138466 5.67697C0.178737 5.85402 0.253949 6.02126 0.359693 6.16887L0.921511 6.94886C0.945159 6.98255 0.960878 7.02114 0.96749 7.06176C0.974103 7.10238 0.971437 7.14397 0.959693 7.18341L0.697875 8.10523C0.649378 8.28094 0.636459 8.46457 0.659876 8.64535C0.683292 8.82612 0.742572 9.0004 0.834238 9.15796C0.924978 9.31574 1.04663 9.45359 1.1919 9.56324C1.33717 9.6729 1.50308 9.75211 1.67969 9.79614L2.60697 10.0307C2.64666 10.0407 2.68353 10.0596 2.71474 10.0861C2.74595 10.1126 2.77066 10.1459 2.78697 10.1834L3.17969 11.0561C3.25414 11.2228 3.36129 11.3727 3.49479 11.4971C3.62828 11.6216 3.78541 11.7179 3.95684 11.7805C4.12827 11.8431 4.31052 11.8706 4.49278 11.8614C4.67504 11.8522 4.8536 11.8065 5.01787 11.727L5.87969 11.3125C5.91689 11.2937 5.958 11.2839 5.99969 11.2839C6.04139 11.2839 6.0825 11.2937 6.11969 11.3125L6.98151 11.727C7.16481 11.8171 7.36638 11.8638 7.5706 11.8634C7.7305 11.8633 7.88919 11.8356 8.03969 11.7816C8.21133 11.7185 8.36869 11.6218 8.5026 11.4973C8.63652 11.3727 8.74431 11.2228 8.81969 11.0561L9.21242 10.1834C9.22873 10.1459 9.25344 10.1126 9.28464 10.0861C9.31585 10.0596 9.35272 10.0407 9.39242 10.0307L10.3197 9.79614C10.4963 9.75167 10.6621 9.6722 10.8074 9.56245C10.9527 9.4527 11.0745 9.3149 11.1655 9.15721C11.2566 8.99952 11.3151 8.82516 11.3375 8.64445C11.3599 8.46375 11.3458 8.28039 11.2961 8.10523L11.0397 7.18341C11.0279 7.14397 11.0253 7.10238 11.0319 7.06176C11.0385 7.02114 11.0542 6.98255 11.0779 6.94886L11.6397 6.16887ZM8.49242 5.15432L5.96151 7.68523C5.7348 7.90894 5.42911 8.03438 5.1106 8.03438C4.7921 8.03438 4.4864 7.90894 4.25969 7.68523L3.50696 6.9325C3.45122 6.87768 3.40695 6.81231 3.37673 6.7402C3.34651 6.66809 3.33095 6.59069 3.33095 6.5125C3.33095 6.43432 3.34651 6.35691 3.37673 6.2848C3.40695 6.2127 3.45122 6.14733 3.50696 6.0925C3.61905 5.98244 3.76987 5.92077 3.92696 5.92077C4.08406 5.92077 4.23488 5.98244 4.34696 6.0925L5.09969 6.84523L7.65787 4.31432C7.76927 4.20365 7.92006 4.14177 8.07708 4.14228C8.23409 4.14279 8.38448 4.20566 8.49515 4.31705C8.60581 4.42844 8.6677 4.57923 8.66719 4.73625C8.66668 4.89327 8.60381 5.04365 8.49242 5.15432Z" fill="#262626"/>
</svg>
