<svg width="20" height="20" viewBox="0 0 20 20" fill="none" xmlns="http://www.w3.org/2000/svg">
<path d="M16.5008 3.49982H12.5008C12.2356 3.49982 11.9812 3.60517 11.7937 3.79271C11.6061 3.98025 11.5008 4.2346 11.5008 4.49982C11.5008 4.76503 11.6061 5.01939 11.7937 5.20692C11.9812 5.39446 12.2356 5.49982 12.5008 5.49982H16.5008C16.766 5.49982 17.0204 5.60517 17.2079 5.79271C17.3954 5.98025 17.5008 6.2346 17.5008 6.49982V16.2198L15.9308 14.7698C15.7464 14.5972 15.5034 14.5007 15.2508 14.4998H6.50079C6.23558 14.4998 5.98122 14.3945 5.79369 14.2069C5.60615 14.0194 5.50079 13.765 5.50079 13.4998V12.4998C5.50079 12.2346 5.39544 11.9802 5.2079 11.7927C5.02036 11.6052 4.76601 11.4998 4.50079 11.4998C4.23558 11.4998 3.98122 11.6052 3.79369 11.7927C3.60615 11.9802 3.50079 12.2346 3.50079 12.4998V13.4998C3.50079 14.2955 3.81686 15.0585 4.37947 15.6211C4.94208 16.1837 5.70514 16.4998 6.50079 16.4998H14.8608L17.8608 19.2298C18.0452 19.4025 18.2882 19.4989 18.5408 19.4998C18.6779 19.4983 18.8136 19.4712 18.9408 19.4198C19.1197 19.3417 19.2718 19.213 19.3784 19.0496C19.485 18.8861 19.5415 18.695 19.5408 18.4998V6.49982C19.5408 6.10246 19.4619 5.70906 19.3087 5.34245C19.1554 4.97584 18.9308 4.64333 18.648 4.36423C18.3652 4.08512 18.0297 3.86498 17.6611 3.71659C17.2925 3.5682 16.8981 3.49452 16.5008 3.49982ZM7.08079 10.4998H9.50079C9.76601 10.4998 10.0204 10.3945 10.2079 10.2069C10.3954 10.0194 10.5008 9.76503 10.5008 9.49982V7.07982C10.5016 6.94821 10.4763 6.81775 10.4266 6.69591C10.3768 6.57407 10.3035 6.46326 10.2108 6.36982L4.63079 0.789816C4.44343 0.603565 4.18998 0.499023 3.92579 0.499023C3.66161 0.499023 3.40815 0.603565 3.22079 0.789816L0.790793 3.21982C0.604542 3.40718 0.5 3.66063 0.5 3.92482C0.5 4.189 0.604542 4.44245 0.790793 4.62982L6.37079 10.2098C6.46423 10.3025 6.57505 10.3758 6.69689 10.4256C6.81872 10.4754 6.94919 10.5006 7.08079 10.4998ZM3.92079 2.90982L8.50079 7.48982V8.48982H7.50079L2.91079 3.91982L3.92079 2.90982Z" fill="#0F5686"/>
</svg>
