<svg width="20" height="20" viewBox="0 0 20 20" fill="none" xmlns="http://www.w3.org/2000/svg">
<path d="M18.3335 14.1673H1.66683C1.44582 14.1673 1.23385 14.2551 1.07757 14.4114C0.921293 14.5677 0.833496 14.7796 0.833496 15.0007C0.833496 15.2217 0.921293 15.4336 1.07757 15.5899C1.23385 15.7462 1.44582 15.834 1.66683 15.834H18.3335C18.5545 15.834 18.7665 15.7462 18.9228 15.5899C19.079 15.4336 19.1668 15.2217 19.1668 15.0007C19.1668 14.7796 19.079 14.5677 18.9228 14.4114C18.7665 14.2551 18.5545 14.1673 18.3335 14.1673ZM18.3335 17.5007H1.66683C1.44582 17.5007 1.23385 17.5884 1.07757 17.7447C0.921293 17.901 0.833496 18.113 0.833496 18.334C0.833496 18.555 0.921293 18.767 1.07757 18.9232C1.23385 19.0795 1.44582 19.1673 1.66683 19.1673H18.3335C18.5545 19.1673 18.7665 19.0795 18.9228 18.9232C19.079 18.767 19.1668 18.555 19.1668 18.334C19.1668 18.113 19.079 17.901 18.9228 17.7447C18.7665 17.5884 18.5545 17.5007 18.3335 17.5007ZM5.00016 5.83398C4.83535 5.83398 4.67423 5.88286 4.53719 5.97443C4.40015 6.06599 4.29334 6.19614 4.23026 6.34842C4.16719 6.50069 4.15069 6.66824 4.18284 6.82989C4.215 6.99154 4.29436 7.14003 4.41091 7.25657C4.52745 7.37312 4.67594 7.45248 4.83759 7.48464C4.99924 7.51679 5.16679 7.50029 5.31907 7.43722C5.47134 7.37414 5.60149 7.26733 5.69305 7.13029C5.78462 6.99325 5.8335 6.83214 5.8335 6.66732C5.8335 6.4463 5.7457 6.23434 5.58942 6.07806C5.43314 5.92178 5.22118 5.83398 5.00016 5.83398ZM16.6668 0.833984H3.3335C2.67045 0.833984 2.03457 1.09738 1.56573 1.56622C1.09689 2.03506 0.833496 2.67094 0.833496 3.33398V10.0007C0.833496 10.6637 1.09689 11.2996 1.56573 11.7684C2.03457 12.2373 2.67045 12.5007 3.3335 12.5007H16.6668C17.3299 12.5007 17.9658 12.2373 18.4346 11.7684C18.9034 11.2996 19.1668 10.6637 19.1668 10.0007V3.33398C19.1668 2.67094 18.9034 2.03506 18.4346 1.56622C17.9658 1.09738 17.3299 0.833984 16.6668 0.833984ZM17.5002 10.0007C17.5002 10.2217 17.4124 10.4336 17.2561 10.5899C17.0998 10.7462 16.8878 10.834 16.6668 10.834H3.3335C3.11248 10.834 2.90052 10.7462 2.74424 10.5899C2.58796 10.4336 2.50016 10.2217 2.50016 10.0007V3.33398C2.50016 3.11297 2.58796 2.90101 2.74424 2.74473C2.90052 2.58845 3.11248 2.50065 3.3335 2.50065H16.6668C16.8878 2.50065 17.0998 2.58845 17.2561 2.74473C17.4124 2.90101 17.5002 3.11297 17.5002 3.33398V10.0007ZM10.0002 4.16732C9.50571 4.16732 9.02236 4.31394 8.61124 4.58864C8.20011 4.86335 7.87968 5.25379 7.69046 5.71061C7.50125 6.16742 7.45174 6.67009 7.5482 7.15504C7.64466 7.64 7.88276 8.08545 8.2324 8.43509C8.58203 8.78472 9.02748 9.02282 9.51244 9.11928C9.99739 9.21574 10.5001 9.16624 10.9569 8.97702C11.4137 8.7878 11.8041 8.46737 12.0788 8.05624C12.3535 7.64512 12.5002 7.16177 12.5002 6.66732C12.5002 6.00428 12.2368 5.36839 11.7679 4.89955C11.2991 4.43071 10.6632 4.16732 10.0002 4.16732ZM10.0002 7.50065C9.83535 7.50065 9.67423 7.45178 9.53719 7.36021C9.40015 7.26864 9.29334 7.13849 9.23026 6.98622C9.16719 6.83395 9.15069 6.66639 9.18284 6.50474C9.215 6.34309 9.29436 6.19461 9.41091 6.07806C9.52745 5.96152 9.67594 5.88215 9.83759 5.85C9.99924 5.81784 10.1668 5.83435 10.3191 5.89742C10.4713 5.96049 10.6015 6.0673 10.6931 6.20434C10.7846 6.34138 10.8335 6.5025 10.8335 6.66732C10.8335 6.88833 10.7457 7.10029 10.5894 7.25657C10.4331 7.41285 10.2212 7.50065 10.0002 7.50065ZM15.0002 5.83398C14.8353 5.83398 14.6742 5.88286 14.5372 5.97443C14.4001 6.06599 14.2933 6.19614 14.2303 6.34842C14.1672 6.50069 14.1507 6.66824 14.1828 6.82989C14.215 6.99154 14.2944 7.14003 14.4109 7.25657C14.5275 7.37312 14.6759 7.45248 14.8376 7.48464C14.9992 7.51679 15.1668 7.50029 15.3191 7.43722C15.4713 7.37414 15.6015 7.26733 15.6931 7.13029C15.7846 6.99325 15.8335 6.83214 15.8335 6.66732C15.8335 6.4463 15.7457 6.23434 15.5894 6.07806C15.4331 5.92178 15.2212 5.83398 15.0002 5.83398Z" fill="white"/>
</svg>
