<svg width="17" height="18" viewBox="0 0 17 18" fill="none" xmlns="http://www.w3.org/2000/svg">
<path d="M15.5836 9.55048C15.45 9.39841 15.3763 9.20291 15.3763 9.00048C15.3763 8.79806 15.45 8.60256 15.5836 8.45048L16.6502 7.25048C16.7678 7.11937 16.8408 6.9544 16.8587 6.77924C16.8767 6.60407 16.8387 6.42772 16.7502 6.27548L15.0836 3.39215C14.996 3.24008 14.8626 3.11955 14.7025 3.04772C14.5424 2.9759 14.3637 2.95645 14.1919 2.99215L12.6252 3.30882C12.4259 3.35001 12.2184 3.31681 12.0418 3.21548C11.8653 3.11416 11.7319 2.95172 11.6669 2.75882L11.1586 1.23382C11.1027 1.0683 10.9962 0.924536 10.8541 0.822851C10.712 0.721165 10.5416 0.666698 10.3669 0.667149H7.03357C6.85185 0.657664 6.67202 0.707921 6.52154 0.810244C6.37107 0.912567 6.25822 1.06133 6.20024 1.23382L5.73357 2.75882C5.66857 2.95172 5.53522 3.11416 5.35867 3.21548C5.18212 3.31681 4.97459 3.35001 4.77524 3.30882L3.16691 2.99215C3.00403 2.96913 2.83799 2.99483 2.6897 3.06602C2.5414 3.1372 2.41749 3.25067 2.33357 3.39215L0.666906 6.27548C0.576206 6.42602 0.535424 6.60139 0.550391 6.7765C0.565358 6.95162 0.635308 7.11752 0.750239 7.25048L1.80857 8.45048C1.94217 8.60256 2.01585 8.79806 2.01585 9.00048C2.01585 9.20291 1.94217 9.39841 1.80857 9.55048L0.750239 10.7505C0.635308 10.8834 0.565358 11.0493 0.550391 11.2245C0.535424 11.3996 0.576206 11.5749 0.666906 11.7255L2.33357 14.6088C2.42115 14.7609 2.5545 14.8814 2.71462 14.9532C2.87473 15.0251 3.05343 15.0445 3.22524 15.0088L4.79191 14.6921C4.99125 14.651 5.19878 14.6842 5.37533 14.7855C5.55188 14.8868 5.68524 15.0492 5.75024 15.2421L6.25857 16.7671C6.31656 16.9396 6.4294 17.0884 6.57988 17.1907C6.73035 17.293 6.91018 17.3433 7.09191 17.3338H10.4252C10.5999 17.3343 10.7704 17.2798 10.9124 17.1781C11.0545 17.0764 11.161 16.9327 11.2169 16.7671L11.7252 15.2421C11.7902 15.0492 11.9236 14.8868 12.1001 14.7855C12.2767 14.6842 12.4842 14.651 12.6836 14.6921L14.2502 15.0088C14.4221 15.0445 14.6008 15.0251 14.7609 14.9532C14.921 14.8814 15.0543 14.7609 15.1419 14.6088L16.8086 11.7255C16.8971 11.5732 16.935 11.3969 16.9171 11.2217C16.8991 11.0466 16.8261 10.8816 16.7086 10.7505L15.5836 9.55048ZM14.3419 10.6671L15.0086 11.4171L13.9419 13.2671L12.9586 13.0671C12.3584 12.9445 11.734 13.0464 11.2041 13.3537C10.6741 13.6609 10.2754 14.152 10.0836 14.7338L9.76691 15.6671H7.63357L7.33357 14.7171C7.14178 14.1354 6.74306 13.6442 6.21308 13.337C5.6831 13.0297 5.05876 12.9278 4.45857 13.0505L3.47524 13.2505L2.39191 11.4088L3.05857 10.6588C3.46853 10.2005 3.69518 9.60709 3.69518 8.99215C3.69518 8.37721 3.46853 7.78383 3.05857 7.32548L2.39191 6.57548L3.45857 4.74215L4.44191 4.94215C5.04209 5.06483 5.66643 4.96288 6.19641 4.65565C6.72639 4.34841 7.12512 3.85728 7.31691 3.27548L7.63357 2.33382H9.76691L10.0836 3.28382C10.2754 3.86561 10.6741 4.35675 11.2041 4.66398C11.734 4.97122 12.3584 5.07317 12.9586 4.95048L13.9419 4.75048L15.0086 6.60048L14.3419 7.35048C13.9365 7.80778 13.7127 8.39772 13.7127 9.00882C13.7127 9.61992 13.9365 10.2098 14.3419 10.6671ZM8.70024 5.66715C8.04097 5.66715 7.3965 5.86265 6.84834 6.22892C6.30017 6.59519 5.87293 7.11578 5.62064 7.72487C5.36835 8.33396 5.30234 9.00418 5.43095 9.65078C5.55957 10.2974 5.87704 10.8913 6.34322 11.3575C6.80939 11.8237 7.40333 12.1411 8.04994 12.2698C8.69654 12.3984 9.36676 12.3324 9.97585 12.0801C10.5849 11.8278 11.1055 11.4005 11.4718 10.8524C11.8381 10.3042 12.0336 9.65975 12.0336 9.00048C12.0336 8.11643 11.6824 7.26858 11.0573 6.64346C10.4321 6.01834 9.58429 5.66715 8.70024 5.66715ZM8.70024 10.6671C8.3706 10.6671 8.04837 10.5694 7.77429 10.3863C7.50021 10.2031 7.28659 9.94283 7.16044 9.63829C7.03429 9.33375 7.00129 8.99863 7.0656 8.67533C7.12991 8.35203 7.28864 8.05506 7.52173 7.82197C7.75481 7.58888 8.05179 7.43015 8.37509 7.36584C8.69839 7.30153 9.0335 7.33454 9.33804 7.46068C9.64259 7.58683 9.90289 7.80045 10.086 8.07453C10.2692 8.34861 10.3669 8.67085 10.3669 9.00048C10.3669 9.44251 10.1913 9.86643 9.87875 10.179C9.56619 10.4916 9.14227 10.6671 8.70024 10.6671Z" fill="white"/>
</svg>
