<svg width="18" height="16" viewBox="0 0 18 16" fill="none" xmlns="http://www.w3.org/2000/svg">
<path d="M16.4998 6.74935H15.6665V5.91602C15.6665 5.695 15.5787 5.48304 15.4224 5.32676C15.2661 5.17048 15.0542 5.08268 14.8332 5.08268C14.6122 5.08268 14.4002 5.17048 14.2439 5.32676C14.0876 5.48304 13.9998 5.695 13.9998 5.91602V6.74935H13.1665C12.9455 6.74935 12.7335 6.83715 12.5772 6.99343C12.421 7.14971 12.3332 7.36167 12.3332 7.58268C12.3332 7.8037 12.421 8.01566 12.5772 8.17194C12.7335 8.32822 12.9455 8.41602 13.1665 8.41602H13.9998V9.24935C13.9998 9.47036 14.0876 9.68232 14.2439 9.8386C14.4002 9.99489 14.6122 10.0827 14.8332 10.0827C15.0542 10.0827 15.2661 9.99489 15.4224 9.8386C15.5787 9.68232 15.6665 9.47036 15.6665 9.24935V8.41602H16.4998C16.7208 8.41602 16.9328 8.32822 17.0891 8.17194C17.2454 8.01566 17.3332 7.8037 17.3332 7.58268C17.3332 7.36167 17.2454 7.14971 17.0891 6.99343C16.9328 6.83715 16.7208 6.74935 16.4998 6.74935ZM10.0832 8.18268C10.5278 7.79779 10.8845 7.32175 11.1289 6.78687C11.3733 6.25198 11.4998 5.67077 11.4998 5.08268C11.4998 3.97761 11.0609 2.91781 10.2794 2.1364C9.49805 1.355 8.43824 0.916016 7.33317 0.916016C6.2281 0.916016 5.16829 1.355 4.38689 2.1364C3.60549 2.91781 3.1665 3.97761 3.1665 5.08268C3.1665 5.67077 3.29301 6.25198 3.53744 6.78687C3.78188 7.32175 4.13852 7.79779 4.58317 8.18268C3.41662 8.71092 2.42689 9.56396 1.73232 10.6398C1.03775 11.7156 0.66773 12.9688 0.666504 14.2493C0.666504 14.4704 0.754301 14.6823 0.910582 14.8386C1.06686 14.9949 1.27882 15.0827 1.49984 15.0827C1.72085 15.0827 1.93281 14.9949 2.08909 14.8386C2.24537 14.6823 2.33317 14.4704 2.33317 14.2493C2.33317 12.9233 2.85995 11.6515 3.79764 10.7138C4.73532 9.77613 6.00709 9.24935 7.33317 9.24935C8.65925 9.24935 9.93102 9.77613 10.8687 10.7138C11.8064 11.6515 12.3332 12.9233 12.3332 14.2493C12.3332 14.4704 12.421 14.6823 12.5772 14.8386C12.7335 14.9949 12.9455 15.0827 13.1665 15.0827C13.3875 15.0827 13.5995 14.9949 13.7558 14.8386C13.912 14.6823 13.9998 14.4704 13.9998 14.2493C13.9986 12.9688 13.6286 11.7156 12.934 10.6398C12.2394 9.56396 11.2497 8.71092 10.0832 8.18268ZM7.33317 7.58268C6.83872 7.58268 6.35537 7.43606 5.94424 7.16136C5.53312 6.88665 5.21269 6.49621 5.02347 6.03939C4.83425 5.58258 4.78474 5.07991 4.88121 4.59496C4.97767 4.11 5.21577 3.66455 5.5654 3.31492C5.91503 2.96528 6.36049 2.72718 6.84544 2.63072C7.3304 2.53426 7.83306 2.58376 8.28988 2.77298C8.74669 2.9622 9.13714 3.28263 9.41184 3.69376C9.68655 4.10488 9.83317 4.58823 9.83317 5.08268C9.83317 5.74572 9.56978 6.38161 9.10094 6.85045C8.6321 7.31929 7.99621 7.58268 7.33317 7.58268Z" fill="white"/>
</svg>
