<svg width="16" height="17" viewBox="0 0 16 17" fill="none" xmlns="http://www.w3.org/2000/svg">
<path d="M2.24146 6.58333C2.10561 6.71977 2.02119 6.89905 2.00256 7.09068C1.98393 7.28232 2.03224 7.47449 2.13927 7.63454C2.24629 7.79459 2.40544 7.91265 2.58966 7.96863C2.77388 8.02462 2.9718 8.01509 3.14979 7.94167C3.25107 7.89637 3.34403 7.8344 3.42479 7.75833C3.49975 7.68154 3.55917 7.59099 3.59979 7.49167C3.64743 7.39014 3.67028 7.27875 3.66646 7.16667C3.66554 6.94805 3.57874 6.73855 3.42479 6.58333C3.34732 6.50523 3.25515 6.44323 3.15361 6.40092C3.05206 6.35862 2.94313 6.33683 2.83312 6.33683C2.72311 6.33683 2.61419 6.35862 2.51264 6.40092C2.41109 6.44323 2.31893 6.50523 2.24146 6.58333ZM2.83312 2.16667C3.05414 2.16667 3.2661 2.25446 3.42238 2.41074C3.57866 2.56702 3.66646 2.77899 3.66646 3C3.66646 3.22101 3.57866 3.43297 3.42238 3.58925C3.2661 3.74554 3.05414 3.83333 2.83312 3.83333C2.61211 3.83333 2.40015 3.92113 2.24387 4.07741C2.08759 4.23369 1.99979 4.44565 1.99979 4.66667C1.99979 4.88768 2.08759 5.09964 2.24387 5.25592C2.40015 5.4122 2.61211 5.5 2.83312 5.5C3.2719 5.49972 3.70287 5.38396 4.08274 5.16436C4.4626 4.94476 4.77798 4.62905 4.99719 4.24896C5.21639 3.86886 5.3317 3.43777 5.33152 2.999C5.33135 2.56022 5.21569 2.12922 4.99618 1.74931C4.77668 1.36939 4.46104 1.05393 4.081 0.834636C3.70096 0.615341 3.26989 0.49993 2.83112 0.5C2.39235 0.50007 1.96132 0.615619 1.58135 0.835036C1.20138 1.05445 0.885845 1.37001 0.666458 1.75C0.611359 1.84511 0.57562 1.95018 0.561301 2.05917C0.546981 2.16815 0.554364 2.27889 0.583023 2.385C0.611682 2.49112 0.661052 2.59052 0.728289 2.67747C0.795526 2.76443 0.879302 2.83722 0.974791 2.89167C1.16614 3.00031 1.39269 3.02886 1.60501 2.9711C1.81733 2.91334 1.99819 2.77394 2.10812 2.58333C2.18155 2.45616 2.28726 2.35065 2.41458 2.27748C2.54189 2.20431 2.68628 2.16608 2.83312 2.16667ZM12.8331 3H7.83313C7.61211 3 7.40015 3.0878 7.24387 3.24408C7.08759 3.40036 6.99979 3.61232 6.99979 3.83333C6.99979 4.05435 7.08759 4.26631 7.24387 4.42259C7.40015 4.57887 7.61211 4.66667 7.83313 4.66667H12.8331C13.0541 4.66667 13.2661 4.75446 13.4224 4.91074C13.5787 5.06702 13.6665 5.27899 13.6665 5.5V13.6L12.3581 12.3917C12.2044 12.2478 12.002 12.1674 11.7915 12.1667H4.49979C4.27878 12.1667 4.06682 12.0789 3.91054 11.9226C3.75426 11.7663 3.66646 11.5543 3.66646 11.3333V10.5C3.66646 10.279 3.57866 10.067 3.42238 9.91074C3.2661 9.75446 3.05414 9.66667 2.83312 9.66667C2.61211 9.66667 2.40015 9.75446 2.24387 9.91074C2.08759 10.067 1.99979 10.279 1.99979 10.5V11.3333C1.99979 11.9964 2.26318 12.6323 2.73202 13.1011C3.20087 13.5699 3.83675 13.8333 4.49979 13.8333H11.4665L13.9665 16.1083C14.1116 16.2447 14.3008 16.3245 14.4998 16.3333C14.6141 16.3321 14.7271 16.3095 14.8331 16.2667C14.9822 16.2016 15.109 16.0944 15.1978 15.9581C15.2867 15.8219 15.3337 15.6626 15.3331 15.5V5.5C15.3331 4.83696 15.0697 4.20107 14.6009 3.73223C14.1321 3.26339 13.4962 3 12.8331 3Z" fill="white"/>
</svg>
