<svg width="20" height="16" viewBox="0 0 20 16" fill="none" xmlns="http://www.w3.org/2000/svg">
<path d="M10.2502 8.18268C10.6948 7.79779 11.0515 7.32175 11.2959 6.78687C11.5403 6.25198 11.6668 5.67077 11.6668 5.08268C11.6668 3.97761 11.2278 2.91781 10.4464 2.1364C9.66504 1.355 8.60523 0.916016 7.50016 0.916016C6.39509 0.916016 5.33529 1.355 4.55388 2.1364C3.77248 2.91781 3.3335 3.97761 3.3335 5.08268C3.33349 5.67077 3.46 6.25198 3.70443 6.78687C3.94887 7.32175 4.30551 7.79779 4.75016 8.18268C3.58361 8.71092 2.59388 9.56396 1.89931 10.6398C1.20474 11.7156 0.834723 12.9688 0.833496 14.2493C0.833496 14.4704 0.921293 14.6823 1.07757 14.8386C1.23385 14.9949 1.44582 15.0827 1.66683 15.0827C1.88784 15.0827 2.0998 14.9949 2.25609 14.8386C2.41237 14.6823 2.50016 14.4704 2.50016 14.2493C2.50016 12.9233 3.02695 11.6515 3.96463 10.7138C4.90231 9.77613 6.17408 9.24935 7.50016 9.24935C8.82624 9.24935 10.098 9.77613 11.0357 10.7138C11.9734 11.6515 12.5002 12.9233 12.5002 14.2493C12.5002 14.4704 12.588 14.6823 12.7442 14.8386C12.9005 14.9949 13.1125 15.0827 13.3335 15.0827C13.5545 15.0827 13.7665 14.9949 13.9228 14.8386C14.079 14.6823 14.1668 14.4704 14.1668 14.2493C14.1656 12.9688 13.7956 11.7156 13.101 10.6398C12.4064 9.56396 11.4167 8.71092 10.2502 8.18268ZM7.50016 7.58268C7.00571 7.58268 6.52236 7.43606 6.11124 7.16136C5.70011 6.88665 5.37968 6.49621 5.19046 6.03939C5.00125 5.58258 4.95174 5.07991 5.0482 4.59496C5.14466 4.11 5.38276 3.66455 5.7324 3.31492C6.08203 2.96528 6.52748 2.72718 7.01244 2.63072C7.49739 2.53426 8.00006 2.58376 8.45687 2.77298C8.91369 2.9622 9.30413 3.28263 9.57884 3.69376C9.85354 4.10488 10.0002 4.58823 10.0002 5.08268C10.0002 5.74572 9.73677 6.38161 9.26793 6.85045C8.79909 7.31929 8.1632 7.58268 7.50016 7.58268ZM15.6168 7.84935C16.1501 7.24879 16.4985 6.5069 16.62 5.71297C16.7415 4.91903 16.6309 4.10691 16.3016 3.37435C15.9723 2.64179 15.4383 2.02001 14.7639 1.58387C14.0895 1.14772 13.3033 0.915801 12.5002 0.916016C12.2791 0.916016 12.0672 1.00381 11.9109 1.16009C11.7546 1.31637 11.6668 1.52834 11.6668 1.74935C11.6668 1.97036 11.7546 2.18232 11.9109 2.3386C12.0672 2.49489 12.2791 2.58268 12.5002 2.58268C13.1632 2.58268 13.7991 2.84607 14.2679 3.31492C14.7368 3.78376 15.0002 4.41964 15.0002 5.08268C14.999 5.52038 14.8829 5.9501 14.6635 6.32887C14.4442 6.70763 14.1292 7.02217 13.7502 7.24102C13.6266 7.31228 13.5234 7.41407 13.4505 7.53663C13.3775 7.6592 13.3372 7.79843 13.3335 7.94102C13.33 8.08249 13.3626 8.22251 13.4282 8.3479C13.4938 8.47328 13.5903 8.57989 13.7085 8.65768L14.0335 8.87435L14.1418 8.93268C15.1463 9.40911 15.9938 10.1627 16.5843 11.1046C17.1749 12.0465 17.484 13.1376 17.4752 14.2493C17.4752 14.4704 17.563 14.6823 17.7192 14.8386C17.8755 14.9949 18.0875 15.0827 18.3085 15.0827C18.5295 15.0827 18.7415 14.9949 18.8978 14.8386C19.054 14.6823 19.1418 14.4704 19.1418 14.2493C19.1486 12.9705 18.8283 11.7112 18.2114 10.5911C17.5944 9.47091 16.7013 8.52711 15.6168 7.84935Z" fill="white"/>
</svg>
